<svg xmlns="http://www.w3.org/2000/svg" width="42.595" height="54" viewBox="0 0 42.595 54">
  <g id="plant" transform="translate(-54.069)">
    <path id="Tracé_7437" data-name="Tracé 7437" d="M298.065,45.536c.239.652,2.89,8.417-2.548,17.573-3.3,5.561-8.317,5.929-8.808,5.952-.288-.4-3.119-4.554-.819-10.6C289.677,48.509,297.406,45.755,298.065,45.536Z" transform="translate(-206.572 -40.733)" fill="#80c56e"/>
    <path id="Tracé_7438" data-name="Tracé 7438" d="M312.59,45.536,301.234,69.061h0c.491-.023,5.506-.391,8.808-5.952C315.48,53.953,312.829,46.188,312.59,45.536Z" transform="translate(-221.097 -40.733)" fill="#66ad66"/>
    <path id="Tracé_7439" data-name="Tracé 7439" d="M297.907,268.984l.351-.727-.028-.039C298.013,268.725,297.907,268.984,297.907,268.984Z" transform="translate(-218.121 -239.929)" fill="#fff" stroke="#000" stroke-linecap="round" stroke-linejoin="round" stroke-miterlimit="10" stroke-width="15"/>
    <path id="Tracé_7440" data-name="Tracé 7440" d="M95.843,45.536c-.239.652-2.89,8.417,2.548,17.573,3.3,5.561,8.317,5.929,8.808,5.952.288-.4,3.119-4.554.819-10.6C104.231,48.509,96.5,45.755,95.843,45.536Z" transform="translate(-36.603 -40.733)" fill="#80c56e"/>
    <path id="Tracé_7441" data-name="Tracé 7441" d="M115.269,58.462c-3.787-9.953-11.515-12.707-12.175-12.926,6.715,12.826,10.337,21.042,11.384,23.486A11.445,11.445,0,0,0,115.269,58.462Z" transform="translate(-43.854 -40.733)" fill="#66ad66"/>
    <path id="Tracé_7442" data-name="Tracé 7442" d="M181.026,0c-.81.786-10.168,10.269-8.68,27.5.9,10.464,7.978,14.542,8.68,14.922.7-.38,7.776-4.458,8.68-14.922C191.194,10.269,181.835.786,181.026,0Z" transform="translate(-105.659)" fill="#80c56e"/>
    <path id="Tracé_7443" data-name="Tracé 7443" d="M256,0V42.419c.7-.38,7.776-4.458,8.68-14.922C266.168,10.269,256.81.786,256,0Z" transform="translate(-180.633)" fill="#66ad66"/>
    <path id="Tracé_7444" data-name="Tracé 7444" d="M276.035,151.01a33.906,33.906,0,0,0,1.165-11.676s-3.391,1.511-11.913,7.017c-6.624,4.28-8.673,11.785-9.288,13.808h7.785A12.744,12.744,0,0,0,276.035,151.01Z" transform="translate(-180.633 -124.639)" fill="#80c56e"/>
    <path id="Tracé_7445" data-name="Tracé 7445" d="M277.2,139.333s-8.758,17.3-21.2,20.826h7.785a12.744,12.744,0,0,0,12.251-9.149A33.909,33.909,0,0,0,277.2,139.333Z" transform="translate(-180.633 -124.638)" fill="#66ad66"/>
    <path id="Tracé_7446" data-name="Tracé 7446" d="M55.331,151.01a33.906,33.906,0,0,1-1.165-11.676s3.391,1.511,11.913,7.017c6.624,4.28,8.673,11.785,9.288,13.808H67.582A12.744,12.744,0,0,1,55.331,151.01Z" transform="translate(0 -124.639)" fill="#80c56e"/>
    <path id="Tracé_7447" data-name="Tracé 7447" d="M76.189,160.159c-.614-2.023-2.664-9.528-9.288-13.808-8.522-5.507-11.913-7.017-11.913-7.017S63.747,156.635,76.189,160.159Z" transform="translate(-0.823 -124.638)" fill="#66ad66"/>
    <path id="Tracé_7448" data-name="Tracé 7448" d="M141.723,358.947H130.464a6.2,6.2,0,0,1-6.094-5.065l-2.414-12.98h28.275l-2.414,12.98A6.2,6.2,0,0,1,141.723,358.947Z" transform="translate(-60.727 -304.947)" fill="#fec37d"/>
    <path id="Tracé_7449" data-name="Tracé 7449" d="M266.031,340.9l-2.414,12.98a6.2,6.2,0,0,1-6.094,5.065h5.469a6.2,6.2,0,0,0,6.094-5.065L271.5,340.9h-5.469Z" transform="translate(-181.996 -304.947)" fill="#f9ae5d"/>
    <path id="Tracé_7450" data-name="Tracé 7450" d="M128.334,332.141H99.073a2.147,2.147,0,0,1-2.147-2.147h0a2.147,2.147,0,0,1,2.147-2.147h29.261a2.147,2.147,0,0,1,2.147,2.147h0A2.147,2.147,0,0,1,128.334,332.141Z" transform="translate(-38.337 -293.269)" fill="#f2a559"/>
    <path id="Tracé_7451" data-name="Tracé 7451" d="M365.544,327.846H362.1v4.294h3.44a2.147,2.147,0,0,0,2.147-2.147h0A2.147,2.147,0,0,0,365.544,327.846Z" transform="translate(-275.547 -293.268)" fill="#ea8f3d"/>
  </g>
</svg>
