<svg xmlns="http://www.w3.org/2000/svg" height="512pt" version="1.1" viewBox="0 0 512.00002 512" width="512pt">
<g id="surface1">
<path d="M 511.996094 256 C 511.996094 397.382812 397.382812 511.996094 256 511.996094 C 114.613281 511.996094 0 397.382812 0 256 C 0 114.613281 114.613281 0 256 0 C 397.382812 0 511.996094 114.613281 511.996094 256 Z M 511.996094 256 " style=" stroke:none;fill-rule:nonzero;fill:rgb(94.901961%,26.27451%,33.333333%);fill-opacity:1;" />
<path d="M 512 255.996094 C 512 336.925781 474.445312 409.074219 415.816406 455.988281 L 96.183594 455.988281 C 61.566406 428.289062 34.296875 391.792969 17.765625 349.890625 L 17.765625 249.644531 L 54.046875 187.859375 L 132.527344 124.445312 L 475.648438 124.445312 C 477.207031 127.046875 478.730469 129.671875 480.195312 132.335938 C 483.214844 137.789062 486.035156 143.367188 488.65625 149.0625 C 494.175781 161.039062 498.792969 173.511719 502.417969 186.40625 C 504.289062 193 505.886719 199.71875 507.214844 206.53125 C 510.359375 222.539062 512 239.082031 512 255.996094 Z M 512 255.996094 " style=" stroke:none;fill-rule:nonzero;fill:rgb(86.27451%,92.54902%,97.647059%);fill-opacity:1;" />
<path d="M 152.558594 124.445312 L 152.558594 455.988281 L 96.183594 455.988281 C 61.566406 428.289062 34.296875 391.792969 17.765625 349.890625 L 17.765625 249.644531 L 54.046875 187.859375 L 132.527344 124.445312 Z M 152.558594 124.445312 " style=" stroke:none;fill-rule:nonzero;fill:rgb(68.627451%,76.078431%,92.156863%);fill-opacity:1;" />
<path d="M 132.527344 9.683594 L 132.527344 341.21875 L 75.140625 341.21875 C 54.378906 341.21875 36.1875 352.253906 26.125 368.773438 C 23.085938 362.609375 20.304688 356.316406 17.765625 349.890625 L 17.765625 67.070312 C 17.765625 35.378906 43.449219 9.683594 75.140625 9.683594 Z M 132.527344 9.683594 " style=" stroke:none;fill-rule:nonzero;fill:rgb(86.27451%,92.54902%,97.647059%);fill-opacity:1;" />
<path d="M 426.433594 401.128906 L 181.941406 401.128906 L 181.941406 203.652344 L 244.632812 203.652344 L 244.632812 338.433594 L 426.433594 338.433594 Z M 426.433594 401.128906 " style=" stroke:none;fill-rule:nonzero;fill:rgb(68.627451%,76.078431%,92.156863%);fill-opacity:1;" />
<path d="M 415.984375 390.679688 L 171.492188 390.679688 L 171.492188 193.203125 L 234.183594 193.203125 L 234.183594 327.984375 L 415.984375 327.984375 Z M 415.984375 390.679688 " style=" stroke:none;fill-rule:nonzero;fill:rgb(99.215686%,68.235294%,18.431373%);fill-opacity:1;" />
<path d="M 502.417969 186.40625 L 495.71875 186.40625 C 495.71875 173.21875 493.210938 160.617188 488.65625 149.0625 C 486.347656 143.199219 483.503906 137.601562 480.195312 132.332031 C 478.492188 129.605469 476.652344 126.972656 474.699219 124.445312 L 312.988281 124.445312 C 299.8125 141.601562 291.976562 163.09375 291.976562 186.40625 L 280.472656 186.40625 L 280.472656 255.140625 L 507.214844 255.140625 L 507.214844 206.53125 C 505.886719 199.71875 504.289062 193 502.417969 186.40625 Z M 345.382812 186.40625 C 345.382812 159.648438 367.085938 137.945312 393.84375 137.945312 C 420.613281 137.945312 442.316406 159.648438 442.316406 186.40625 Z M 345.382812 186.40625 " style=" stroke:none;fill-rule:nonzero;fill:rgb(68.627451%,76.078431%,92.156863%);fill-opacity:1;" />
<path d="M 485.273438 175.957031 C 485.273438 119.699219 439.664062 74.089844 383.394531 74.089844 C 327.136719 74.089844 281.527344 119.699219 281.527344 175.957031 L 270.023438 175.957031 L 270.023438 244.691406 L 496.765625 244.691406 L 496.765625 175.957031 Z M 334.933594 175.957031 C 334.933594 149.199219 356.636719 127.496094 383.394531 127.496094 C 410.164062 127.496094 431.867188 149.199219 431.867188 175.957031 Z M 334.933594 175.957031 " style=" stroke:none;fill-rule:nonzero;fill:rgb(16.470588%,25.098039%,47.843137%);fill-opacity:1;" />
<path d="M 395.132812 361.464844 L 407.996094 361.464844 L 407.996094 390.679688 L 395.132812 390.679688 Z M 395.132812 361.464844 " style=" stroke:none;fill-rule:nonzero;fill:rgb(92.941176%,58.431373%,17.254902%);fill-opacity:1;" />
<path d="M 364.324219 361.464844 L 377.1875 361.464844 L 377.1875 390.679688 L 364.324219 390.679688 Z M 364.324219 361.464844 " style=" stroke:none;fill-rule:nonzero;fill:rgb(92.941176%,58.431373%,17.254902%);fill-opacity:1;" />
<path d="M 333.515625 361.464844 L 346.382812 361.464844 L 346.382812 390.679688 L 333.515625 390.679688 Z M 333.515625 361.464844 " style=" stroke:none;fill-rule:nonzero;fill:rgb(92.941176%,58.431373%,17.254902%);fill-opacity:1;" />
<path d="M 302.710938 361.464844 L 315.574219 361.464844 L 315.574219 390.679688 L 302.710938 390.679688 Z M 302.710938 361.464844 " style=" stroke:none;fill-rule:nonzero;fill:rgb(92.941176%,58.431373%,17.254902%);fill-opacity:1;" />
<path d="M 271.902344 361.464844 L 284.765625 361.464844 L 284.765625 390.679688 L 271.902344 390.679688 Z M 271.902344 361.464844 " style=" stroke:none;fill-rule:nonzero;fill:rgb(92.941176%,58.431373%,17.254902%);fill-opacity:1;" />
<path d="M 241.09375 361.464844 L 253.957031 361.464844 L 253.957031 390.679688 L 241.09375 390.679688 Z M 241.09375 361.464844 " style=" stroke:none;fill-rule:nonzero;fill:rgb(92.941176%,58.431373%,17.254902%);fill-opacity:1;" />
<path d="M 210.285156 361.464844 L 223.152344 361.464844 L 223.152344 390.679688 L 210.285156 390.679688 Z M 210.285156 361.464844 " style=" stroke:none;fill-rule:nonzero;fill:rgb(92.941176%,58.431373%,17.254902%);fill-opacity:1;" />
<path d="M 179.480469 361.464844 L 192.34375 361.464844 L 192.34375 390.679688 L 179.480469 390.679688 Z M 179.480469 361.464844 " style=" stroke:none;fill-rule:nonzero;fill:rgb(92.941176%,58.431373%,17.254902%);fill-opacity:1;" />
<path d="M 469.386719 215.476562 L 482.25 215.476562 L 482.25 244.691406 L 469.386719 244.691406 Z M 469.386719 215.476562 " style=" stroke:none;fill-rule:nonzero;fill:rgb(10.588235%,17.254902%,38.039216%);fill-opacity:1;" />
<path d="M 438.578125 215.476562 L 451.441406 215.476562 L 451.441406 244.691406 L 438.578125 244.691406 Z M 438.578125 215.476562 " style=" stroke:none;fill-rule:nonzero;fill:rgb(10.588235%,17.254902%,38.039216%);fill-opacity:1;" />
<path d="M 407.769531 215.476562 L 420.632812 215.476562 L 420.632812 244.691406 L 407.769531 244.691406 Z M 407.769531 215.476562 " style=" stroke:none;fill-rule:nonzero;fill:rgb(10.588235%,17.254902%,38.039216%);fill-opacity:1;" />
<path d="M 376.960938 215.476562 L 389.828125 215.476562 L 389.828125 244.691406 L 376.960938 244.691406 Z M 376.960938 215.476562 " style=" stroke:none;fill-rule:nonzero;fill:rgb(10.588235%,17.254902%,38.039216%);fill-opacity:1;" />
<path d="M 346.15625 215.476562 L 359.019531 215.476562 L 359.019531 244.691406 L 346.15625 244.691406 Z M 346.15625 215.476562 " style=" stroke:none;fill-rule:nonzero;fill:rgb(10.588235%,17.254902%,38.039216%);fill-opacity:1;" />
<path d="M 315.347656 215.476562 L 328.210938 215.476562 L 328.210938 244.691406 L 315.347656 244.691406 Z M 315.347656 215.476562 " style=" stroke:none;fill-rule:nonzero;fill:rgb(10.588235%,17.254902%,38.039216%);fill-opacity:1;" />
<path d="M 284.539062 215.476562 L 297.40625 215.476562 L 297.40625 244.691406 L 284.539062 244.691406 Z M 284.539062 215.476562 " style=" stroke:none;fill-rule:nonzero;fill:rgb(10.588235%,17.254902%,38.039216%);fill-opacity:1;" />
</g>
</svg>